<?xml version="1.0" standalone="no"?><!DOCTYPE svg PUBLIC "-//W3C//DTD SVG 1.1//EN" "http://www.w3.org/Graphics/SVG/1.1/DTD/svg11.dtd"><svg t="1760602774638" class="icon" viewBox="0 0 1024 1024" version="1.1" xmlns="http://www.w3.org/2000/svg" p-id="4569" xmlns:xlink="http://www.w3.org/1999/xlink" width="200" height="200"><path d="M511.2 67.5C265.2 67.5 65.7 267 65.7 513s199.5 445.5 445.5 445.5S956.7 759 956.7 513c0-245.8-199.5-445.5-445.5-445.5z m2.4 26.6c225.1 0 409 176.9 419.9 399.5h-67.1c-2.2-24.2-36.1-325.8-361.4-331.1C217.7 157.7 149.6 434 149.6 434l137.1 2.4 184.6-189s19.8-14.7 33.7-13.8c16.3 0.9 29.9 10.5 29.9 10.5L778 493.6h-82.3L531.9 332.1l-7.9-7.9-7.2-7.1-12.5-12.3-195 188.8H93.7C104.5 271 288.4 94.1 513.6 94.1z m-9.7 265.6l50.4 52.4-53.9 53.2-52.1-50.2 55.6-55.4z m-82.7 82.4l51.9 50.1-48.6 47.8-51.2-50.4 47.9-47.5z m79.9 77l50.1 48.4-49.3 48.8-49.7-49 48.9-48.2z m77.4 21.4l-50.1-48.2 52.8-52.1 48.2 50.1-50.9 50.2z m-64.9 394.2c-226.2 0-410.9-178.8-420-402.8H146c2.9 25.5 43.5 323.8 368 321.6 287.5-2 348.9-279.8 348.9-279.8l-137.1 0.9-180 193.2s-19.4 15-33.4 14.7c-16.3-0.5-30.1-9.7-30.1-9.7l-250-240.9H331l14.9-14.9 128.3 126.5-27 26.6 28.1 27 26.6-26.2 27.1 26.8 28-27.1-27.3-26.9 126.9-125.4 13.2 13.8h263.8c-9.1 223.9-193.8 402.6-420 402.6z m0 0" fill="#961C12" p-id="4570"></path></svg>